PathFileType	4	(X/Y/Z)	C:/Users/beibeiliu/ov580/test_trc/capture2\sequence.35_training_dense_right.trc
DataRate	CameraRate	NumFrames	NumMarkers	Units	OrigDataRate	OrigDataStartFrame	OrigNumFrames
120	120	23	19	mm	120	69	272
Frame#	Time	ThumbCMC			ThumbMCP			ThumbIP			ThumbTip			IndexMCP			IndexPIP			IndexTip			MiddleMCP			MiddlePIP			MiddleTip			RingMCP			RingPIP			RingTip			PinkyMCP			PinkyPIP			PinkyTip			BackHand1			BackHand2			BackHand3	
		X0	Y0	Z0	X1	Y1	Z1	X2	Y2	Z2	X3	Y3	Z3	X4	Y4	Z4	X5	Y5	Z5	X6	Y6	Z6	X7	Y7	Z7	X8	Y8	Z8	X9	Y9	Z9	X10	Y10	Z10	X11	Y11	Z11	X12	Y12	Z12	X13	Y13	Z13	X14	Y14	Z14	X15	Y15	Z15	X16	Y16	Z16	X17	Y17	Z17	X18	Y18	Z18	
68	0.566667	216.322	24.5284	27.9214	206.304	45.3997	7.99771	200.17	59.6497	-19.8487	183.223	50.1035	-39.928	213.321	12.2931	-45.122	196.22	32.5962	-61.1851	188.599	47.1063	-31.3127	194.38	4.26365	-56.8145	176.953	27.5216	-59.6718	173.733	36.6068	-23.5306	176.908	-6.81946	-50.7655	164.36	20.7667	-53.7882	167.887	29.7231	-19.187	163.19	-13.5835	-40.4754	153.67	10.9103	-45.1438	161.523	23.0056	-13.4194	193.444	-30.4552	-0.222904	191.776	-35.8332	27.2599	216.234	-15.9803	12.5926	
69	0.575	216.778	18.7163	25.9297	212.01	43.2416	10.1374	205.269	56.1953	-18.5443	188.406	52.1167	-33.9018	215.082	15.2661	-47.482	199.443	37.6028	-57.6859	191.981	48.2524	-27.0578	195.783	6.56454	-52.7787	180.364	33.5308	-56.7181	174.731	37.0529	-19.207	176.209	-3.50606	-47.2209	165.619	24.5512	-51.0246	165.192	30.5028	-15.6716	162.916	-7.57998	-39.2658	149.011	16.1944	-40.941	158.304	25.6576	-11.6274	187.629	-31.3244	-2.41483	192.124	-34.406	31.3643	216.767	-15.3578	17.7717	
70	0.583333	218.044	16.3742	30.7011	214.86	42.1538	10.9677	211.282	58.0177	-14.1573	190.776	52.8587	-32.7101	211.42	14.4065	-46.8643	200.66	40.0072	-54.1622	197.079	48.2588	-19.5216	191.811	6.20712	-50.2518	182.686	35.7866	-55.1006	175.842	40.6569	-18.2912	176.316	1.30682	-44.7496	165.397	29.2969	-48.2312	170.413	36.1593	-14.3479	160.997	-4.59612	-37.6615	151.841	23.4852	-36.3403	162.078	30.7081	-10.86	183.596	-28.7395	-1.78742	187.148	-34.0789	27.9036	214.715	-19.7874	15.2343	
71	0.591667	219.575	14.8004	30.538	221.183	42.5405	14.6098	211.037	54.0129	-11.8972	190.659	53.266	-31.0494	213.298	14.2077	-43.3718	198.75	40.4612	-50.3801	197.276	49.4733	-20.8506	194.228	11.9734	-50.2472	182.803	38.9759	-52.1563	182.535	42.7857	-12.3467	173.964	5.45506	-44.4237	161.747	31.984	-43.4353	171.117	36.9008	-8.09741	156.99	-2.20957	-32.6098	153.367	25.6271	-36.3778	161.61	32.3107	-8.07941	181.388	-30.3373	1.84902	184.846	-34.618	34.0465	211.694	-18.8864	20.0713	
72	0.6	219.489	12.6495	34.5145	220.678	40.9779	13.1066	212.857	53.8402	-10.5849	191.357	52.9544	-26.3884	210.661	13.0267	-40.3116	198.745	43.3054	-48.5451	195.96	47.0605	-16.1228	191.27	12.7459	-47.8207	178.289	41.3454	-47.7323	181.144	45.0058	-12.6134	173.134	6.52649	-41.6076	165.857	37.5616	-39.7747	168.2	37.6597	-5.65472	157.394	0.378362	-30.4019	154.175	30.6919	-30.5129	162.635	32.8607	0.64855	179.895	-28.666	2.08064	180.951	-34.6416	28.671	212.468	-18.1276	15.2836	
73	0.608333	220.341	12.7399	31.1355	224.776	42.5341	16.6376	213.874	54.6676	-6.71858	193.483	53.8488	-23.1463	211.216	16.0606	-41.0716	203.233	45.6847	-48.018	197.027	50.8141	-15.9445	191.463	14.5544	-46.4842	179.752	41.7676	-47.2447	181.06	45.9451	-10.1739	172.987	9.03197	-39.8882	161.222	40.3371	-36.7992	169.092	39.2235	-3.43809	154.57	3.29816	-29.6328	149.361	32.8906	-27.2373	163.613	33.813	4.08409	180.405	-24.5683	0.658188	181.876	-33.5071	32.0518	211.297	-18.5128	18.7086	
74	0.616667	219.628	12.7724	32.975	221.848	40.5128	15.3742	214.264	54.5418	-4.88507	191.307	53.0139	-19.9432	210.45	17.9889	-40.1876	200.212	47.8436	-45.3905	194.289	47.8862	-13.2802	190.381	17.1611	-45.6978	176.979	45.0083	-42.7761	177.999	46.0159	-7.58722	171.306	9.83763	-39.5979	161.665	42.5431	-32.4964	168.033	41.5267	-3.32331	154.173	5.22234	-29.4573	151.272	36.1042	-24.0004	165.716	33.2166	4.18744	177.083	-25.3829	-0.997689	181.153	-33.8463	32.2197	210.494	-18.8388	14.1269	
75	0.625	220.69	12.8435	31.9891	224.592	41.0943	18.2624	216.382	56.4779	-3.5687	190.53	55.3833	-23.3829	208.888	20.5843	-41.764	198.959	47.8471	-44.3186	197.96	50.4065	-11.4177	192.109	16.5534	-43.5676	179.56	48.3846	-41.4602	180.897	44.0569	-3.24677	168.557	15.1211	-42.2257	162.967	41.8788	-36.3055	168.817	40.5668	-1.86144	153.386	5.8465	-28.723	148.156	35.2211	-25.4012	162.908	34.4362	6.49265	176.327	-25.5367	-1.15963	179.951	-33.0443	30.9203	211.985	-19.4387	13.6631	
76	0.633333	220.396	12.3766	33.4276	223.248	41.9792	14.0298	213.849	56.3315	-4.9694	191.149	57.9992	-22.6278	207.015	17.428	-39.5224	200.604	48.9111	-45.7391	195.746	47.2789	-8.71583	190.598	18.3452	-45.0768	176.81	48.1796	-41.3703	180.511	46.228	-5.98104	170.805	13.6646	-39.4222	161.501	44.449	-31.9957	168.806	40.4462	-1.05189	154.613	7.56053	-28.4583	149.357	36.106	-24.6736	165.885	35.0149	6.03188	178.463	-24.8508	3.53291	178.449	-35.3192	27.31	209.322	-20.3751	18.473	
77	0.641667	221.558	13.3967	32.9295	220.929	40.7087	18.4209	214.505	56.6425	-3.93531	190.362	57.9972	-21.0338	210.258	22.1383	-42.8644	198.624	49.0474	-43.8141	193.951	48.5544	-9.99544	188.181	19.2954	-44.9359	179.824	48.2472	-41.808	178.078	44.6055	-4.23254	165.636	16.5187	-42.2235	163.394	43.2129	-33.6678	170.465	42.6969	-1.75525	149.637	8.35205	-28.156	147.894	37.4842	-19.9467	163.788	31.3297	9.35101	177.493	-23.1831	0.652017	177.273	-32.9066	27.9057	206.422	-19.123	15.9309	
78	0.65	222.323	12.9219	35.4228	223.909	41.9294	20.8866	213.989	59.0828	-7.37204	187.995	54.3564	-18.6534	207.602	19.6421	-37.7243	199.958	49.8876	-44.0762	194.447	49.7596	-9.49532	189.035	16.8507	-41.7351	174.869	47.1172	-40.7764	178.746	45.8528	-3.95619	166.161	15.576	-39.4108	158.849	44.7797	-30.2899	169.295	40.3924	0.76948	150.39	11.4014	-28.9462	146.458	37.2666	-20.0852	164.27	35.1712	7.94489	179.095	-25.1725	1.7665	182.884	-34.5163	31.345	207.907	-18.5006	15.7285	
79	0.658333	222.765	14.1448	34.0555	225.196	42.1341	18.9401	214.97	55.9417	0.125742	190.924	54.317	-16.5609	210.296	23.6093	-40.712	196.261	50.2311	-41.4607	198.555	51.9934	-9.04321	190.768	18.7951	-41.7091	177.598	48.17	-40.5352	182.432	45.159	-0.329218	170.211	14.1915	-36.3203	162.155	45.5368	-30.3636	170.817	39.446	2.75342	150.16	10.3443	-28.2948	152.074	37.7486	-21.2956	164.294	34.6514	11.2832	180.125	-25.0869	3.69034	184.275	-33.2287	29.5063	210.357	-17.3124	18.5141	
80	0.666667	224.245	13.6067	35.6259	225.354	43.3785	17.6228	215.737	58.0888	-2.25299	192.67	59.716	-19.0206	208.105	22.3688	-40.6227	199.145	51.5985	-41.6451	197.706	51.7349	-7.69786	189.064	20.6292	-41.8869	175.863	49.2547	-38.7869	182.093	48.5686	-1.98215	170.526	14.6556	-36.6178	163.283	44.2834	-31.1153	172.084	41.9605	2.58817	155.06	10.1076	-26.974	150.832	39.1685	-18.4259	165.552	33.1505	11.2711	182.636	-23.7634	3.90173	184.104	-32.0921	30.9097	211.593	-16.3613	19.0567	
81	0.675	224.155	15.6714	35.535	224.989	44.0857	20.1456	217.066	59.7353	-1.56535	192.544	56.2437	-14.348	212.333	25.3126	-39.7132	200.73	52.9567	-40.9441	199.366	52.8629	-5.95498	187.856	22.659	-44.0987	176.353	51.1557	-35.2436	183.146	48.658	-1.05426	169.638	17.2308	-38.1491	164.862	47.3253	-28.9919	169.214	40.7788	4.79084	154.811	12.0611	-27.9116	149.846	39.4416	-18.8761	164.328	37.8822	10.1073	182.126	-23.0954	5.67143	181.938	-33.7969	32.0067	208.967	-17.1117	17.6302	
82	0.683333	227.039	17.8408	35.3684	225.76	44.4742	20.1788	215.037	58.2784	-2.51247	191.751	56.6953	-15.2434	209.23	25.6238	-39.7482	199.98	52.1397	-41.6616	196.313	52.823	-9.49138	191.694	22.3752	-41.4487	182.426	51.3662	-40.2336	183.637	47.7143	0.972589	171.77	19.1565	-38.3484	166.278	47.3113	-27.6818	170.861	42.7311	2.20258	156.978	9.74018	-26.2711	150.421	39.4359	-19.6406	164.182	39.5714	8.34716	181.448	-21.9902	0.796856	185.525	-32.2631	28.874	211.494	-14.3227	15.9221	
83	0.691667	224.172	16.163	36.9312	226.716	46.69	20.0976	217.554	60.2061	-0.371244	192.636	58.1942	-15.7764	211.191	24.0089	-37.3955	202.055	55.2638	-39.8844	201.671	54.9495	-5.86159	191.496	21.1343	-41.2253	181.122	51.1076	-39.1228	183.309	50.2473	-1.8676	175.384	17.4326	-35.4686	164.391	45.2877	-30.9484	175.359	43.1633	3.25385	157.768	13.6414	-28.1418	155.166	40.7617	-19.334	165.878	40.1425	7.97532	181.253	-23.2644	2.66871	182.772	-32.6495	33.8837	212.729	-16.2008	17.0968	
84	0.7	225.283	17.7918	37.333	225.11	45.1425	20.8031	216.993	62.7196	-2.09245	194.033	58.6392	-13.1233	217.431	27.6617	-38.3319	201.511	53.9804	-39.6713	200.294	54.6441	-6.45379	195.522	22.5197	-39.3008	181.933	53.7885	-36.798	182.169	48.8497	0.330237	177.323	19.9906	-38.505	162.437	46.0652	-30.1788	175.641	44.5762	0.931834	158.828	8.44066	-25.4182	151.067	39.0903	-21.5327	166.941	40.379	5.54291	188.208	-19.926	1.27296	186.639	-31.1413	30.7159	212.888	-14.0225	16.8061	
85	0.708333	225.843	19.7008	36.141	226.653	48.2372	22.5496	215.716	61.7533	-0.0453956	195.019	62.7784	-15.0829	216.766	27.2435	-35.3093	203.55	55.1761	-41.3258	200.124	56.4938	-6.10709	197.358	26.6119	-42.3192	181.943	51.8551	-40.03	184.618	50.4568	0.636317	173.729	19.2514	-38.3191	167.401	46.5	-32.5335	172.126	43.8194	2.93443	160.125	12.7622	-27.8598	153.396	39.4549	-22.3604	169.934	38.7772	6.82789	188.814	-19.7966	5.09658	187.413	-29.5051	35.0804	214.083	-14.4556	21.6049	
86	0.716667	228.662	22.0271	37.1381	229.471	51.2203	25.1514	219.698	66.6681	-1.1836	197.709	66.1273	-15.311	218.005	29.77	-37.472	205.46	54.431	-41.9434	199.709	55.8063	-4.69045	197.159	24.7827	-41.0265	183.041	54.5992	-38.1212	187.307	51.601	-0.0622165	175.618	21.5455	-39.0555	170.003	49.4938	-30.1041	178.77	46.1316	2.20319	162.416	13.3954	-26.2666	158.176	41.9183	-22.1213	169.322	43.0683	6.58022	188.61	-17.3576	3.76704	189.469	-30.5127	33.0331	217.376	-12.3472	18.3975	
87	0.725	228.944	22.2646	40.5578	229.309	51.5149	21.944	221.017	68.7651	-0.496554	196.687	65.4157	-16.7211	218.12	30.4457	-36.4625	206.81	56.5392	-41.4778	203.623	62.9175	-7.75587	199.582	28.9196	-41.7033	188.336	56.669	-38.1079	185.299	54.5379	-1.63615	179.454	23.1828	-37.809	168.441	50.5756	-29.091	177.333	48.9242	2.1962	161.529	14.6919	-26.461	158.527	42.3555	-21.0717	169.268	41.2984	10.4317	189.476	-18.765	5.32992	190.76	-25.8281	32.3813	217.931	-10.2948	22.4694	
88	0.733333	230.548	23.4038	42.3532	233.098	54.6277	25.3251	223.336	67.6911	3.23509	199.613	65.4376	-12.6313	219.498	32.0729	-34.4197	206.149	60.6047	-38.4822	206.536	61.8992	-4.53737	198.053	29.411	-41.2895	187.144	57.4917	-39.0162	188.919	57.891	-0.0667849	183.157	27.8125	-36.8971	172.696	54.3087	-27.3667	178.005	48.0615	6.60504	166.382	16.4269	-25.3825	158.953	45.8627	-19.4042	173.212	42.6612	11.5084	192.915	-12.3311	2.81507	194.579	-23.53	30.8514	221.455	-8.13366	20.6204	
89	0.741667	232.681	26.1285	37.7527	233.95	54.6782	26.3408	226.635	71.3868	2.15278	204.492	69.4854	-10.43	222.846	35.9891	-33.3108	213.539	63.1548	-39.52	204.912	62.2764	-3.17828	200.856	31.6615	-38.3548	190.543	62.4819	-35.7686	193.033	58.75	1.23412	184.334	30.2246	-36.3595	172.157	54.9478	-28.2641	181.837	53.5478	4.2061	164.769	19.5245	-25.7494	161.636	47.1581	-21.6359	172.045	47.7475	9.70042	191.741	-12.9196	5.97264	192.454	-22.5105	31.4532	224.723	-5.44229	18.4615	
90	0.75	235.416	28.3303	41.6278	237.259	57.9015	25.2171	228.336	73.9821	1.39482	204.999	74.5964	-12.7577	226.607	40.6634	-34.0981	210.9	64.6943	-38.1738	207.857	67.3828	-4.90327	202.475	33.7784	-37.0104	191.913	64.9541	-35.1852	190.996	63.0598	0.59983	182.802	30.1281	-34.1901	174.572	59.9847	-24.0024	182.118	52.7285	7.48818	167.742	21.8722	-23.6802	159.801	50.0591	-18.0394	173.232	48.4365	8.8163	195.881	-7.87902	3.16657	198.309	-20.0491	35.9593	227.177	-2.78532	19.3881	
